<?xml version="1.0" encoding="UTF-8"?>
<svg version="1.1" xmlns="http://www.w3.org/2000/svg" width="256" height="256">
<path d="M0 0 C2.22081153 -0.0045801 4.44162165 -0.00989096 6.66242981 -0.0158844 C11.2871379 -0.02474612 15.91167269 -0.02247368 20.53637695 -0.01245117 C26.38744416 -0.00099042 32.23790517 -0.02116535 38.08889294 -0.05036831 C42.66817361 -0.06894687 47.2473149 -0.06839504 51.82662392 -0.06273079 C53.98022624 -0.0625801 56.13383962 -0.06840879 58.28740501 -0.08102226 C84.88488051 -0.21488442 114.90152411 1.58931747 135.20703125 20.74609375 C148.3665027 34.7265661 152.05623334 54.12737868 153.50390625 72.72265625 C153.58799744 73.79681793 153.67208862 74.87097961 153.75872803 75.97769165 C154.61811648 87.99867074 154.69621181 100.00924958 154.65527344 112.05615234 C154.64447954 115.82665857 154.65528499 119.59669484 154.66796875 123.3671875 C154.70387318 182.2728699 154.70387318 182.2728699 135.39453125 202.43359375 C124.54123883 213.00375681 109.36236887 219.03564841 94.22265625 219.5390625 C92.15696782 219.51080059 90.09143101 219.46524447 88.02655029 219.40093994 C84.16822287 219.43562838 80.4535097 219.88447053 76.64160156 220.41308594 C67.33040358 221.59640303 58.12833935 221.72550428 48.75390625 221.69921875 C47.01247097 221.70057241 45.27103606 221.70251871 43.52960205 221.70501709 C39.90592803 221.7079386 36.28235368 221.70377 32.65869141 221.69433594 C28.07893206 221.68297605 23.49940606 221.68967727 18.91965485 221.70122528 C-16.59288642 221.77712532 -16.59288642 221.77712532 -32.48510742 219.695755 C-35.74784478 219.2923505 -39.02120815 219.00580458 -42.29534912 218.71128845 C-52.63945771 217.46784455 -63.2918141 213.69396237 -71.60546875 207.43359375 C-72.86423828 206.49773437 -72.86423828 206.49773437 -74.1484375 205.54296875 C-91.03034193 191.75139781 -94.11807203 170.49264676 -96.31558228 149.96502686 C-97.24399112 138.65503473 -97.08656387 127.262623 -97.05151367 115.92260742 C-97.04234522 112.81360896 -97.04921821 109.70536322 -97.07202148 106.59643555 C-97.54498134 41.71834274 -97.54498134 41.71834274 -76.515625 19.1953125 C-56.84367705 0.30597369 -25.56584698 -0.04709423 0 0 Z " fill="#567CC6" transform="translate(98.60546875,17.56640625)"/>
<path d="M0 0 C7.58917359 5.2556151 12.45864069 15.56108077 14.81347656 24.25585938 C16.0952862 31.91153405 15.94721754 39.55823914 15.92700195 47.30078125 C15.92671953 48.81918333 15.92687889 50.33758555 15.92744446 51.85598755 C15.92773029 55.95870084 15.92186825 60.06138464 15.9148705 64.16409111 C15.90860123 68.45887984 15.90803034 72.75366931 15.90684509 77.04846191 C15.90374229 85.17262488 15.89554311 93.29677432 15.8854956 101.42093134 C15.87430177 110.67365963 15.86881578 119.92638859 15.86380017 129.17912197 C15.85335959 148.20470897 15.83557811 167.23028259 15.81347656 186.25585938 C6.90347656 186.25585938 -2.00652344 186.25585938 -11.18652344 186.25585938 C-11.19238968 184.35904922 -11.19825592 182.46223907 -11.20429993 180.50794983 C-11.26151777 162.63055156 -11.33409827 144.75327384 -11.42223835 126.8760004 C-11.46715881 117.68516755 -11.50658211 108.49437312 -11.53295898 99.3034668 C-11.55596945 91.29047093 -11.58940149 83.27759704 -11.635225 75.26469797 C-11.65911616 71.02391574 -11.6778718 66.78325402 -11.68413734 62.54240608 C-11.69020684 58.54587968 -11.71027358 54.54966144 -11.74079895 50.55324936 C-11.7495494 49.09123694 -11.75330799 47.62918421 -11.7515316 46.16714668 C-11.74260458 35.42392846 -12.68873991 27.32812486 -18.87402344 18.38085938 C-22.18652344 13.56641838 -22.18652344 13.56641838 -22.18652344 10.25585938 C-18.95114018 8.35473748 -15.69632331 6.48975352 -12.43652344 4.63085938 C-11.51613281 4.08945312 -10.59574219 3.54804687 -9.64746094 2.99023438 C-8.75800781 2.4875 -7.86855469 1.98476563 -6.95214844 1.46679688 C-6.13520508 0.9954834 -5.31826172 0.52416992 -4.4765625 0.03857422 C-2.18652344 -0.74414062 -2.18652344 -0.74414062 0 0 Z " fill="#FCFCFE" transform="translate(125.1865234375,52.744140625)"/>
<path d="M0 0 C3.137544 0.39281258 5.60040875 1.74594494 8.328125 3.28515625 C9.12734375 3.73310547 9.9265625 4.18105469 10.75 4.64257812 C11.575 5.11115234 12.4 5.57972656 13.25 6.0625 C14.09046875 6.53494141 14.9309375 7.00738281 15.796875 7.49414062 C17.86698876 8.65857961 19.93455014 9.8273145 22 11 C22 16.21170296 19.9932459 17.93921421 16.82421875 21.87890625 C10.29395862 33.05166394 11.54178993 46.19973118 11.5234375 58.6953125 C11.50911265 60.89680936 11.49335298 63.09829732 11.47622681 65.29977417 C11.43456587 71.06305179 11.40943466 76.82627406 11.38873291 82.58966064 C11.35276527 91.84900934 11.29208063 101.10822218 11.23024368 110.36742783 C11.2111126 113.60319733 11.19941754 116.83893015 11.18881226 120.07473755 C11.17860848 122.04087406 11.16825127 124.00700978 11.15771484 125.97314453 C11.15615135 127.33041405 11.15615135 127.33041405 11.15455627 128.71510315 C11.11343726 134.88656274 11.11343726 134.88656274 10 136 C8.58630463 136.2265263 7.16306305 136.39428187 5.73828125 136.53515625 C4.86623047 136.62216797 3.99417969 136.70917969 3.09570312 136.79882812 C2.17724609 136.88583984 1.25878906 136.97285156 0.3125 137.0625 C-1.03618164 137.19881836 -1.03618164 137.19881836 -2.41210938 137.33789062 C-6.96954339 137.78259989 -11.41776906 138.01689173 -16 138 C-16.11634739 124.32535609 -16.20494455 110.65083182 -16.25906086 96.97579193 C-16.28504672 90.62446995 -16.32024248 84.27348904 -16.37719727 77.92236328 C-16.43191092 71.78204542 -16.46150313 65.64205363 -16.47438622 59.50151062 C-16.48355583 57.17016983 -16.50146004 54.83884492 -16.52865028 52.50764465 C-16.70836314 36.44676053 -16.43494833 20.99556843 -6.3125 7.625 C-5.54550781 6.58601563 -4.77851563 5.54703125 -3.98828125 4.4765625 C-2 2 -2 2 0 0 Z " fill="#FBFCFD" transform="translate(181,100)"/>
<path d="M0 0 C14.17504284 15.02047283 14.17194782 32.29534421 14.09765625 51.70703125 C14.09578536 53.16818696 14.09436464 54.62934331 14.09336853 56.09049988 C14.08959613 59.88959563 14.07981262 63.68865162 14.06866455 67.48773193 C14.05833529 71.38309186 14.05384654 75.27845838 14.04882812 79.17382812 C14.0381842 86.78256998 14.02117334 94.39127937 14 102 C10.60301001 101.72091827 7.20774454 101.42451466 3.8125 101.125 C2.85279297 101.04636719 1.89308594 100.96773438 0.90429688 100.88671875 C-0.49272461 100.76103516 -0.49272461 100.76103516 -1.91796875 100.6328125 C-2.77156982 100.55949707 -3.6251709 100.48618164 -4.50463867 100.41064453 C-7.2180444 99.96411793 -9.48936295 99.10491623 -12 98 C-12.01213028 96.90911324 -12.01213028 96.90911324 -12.02450562 95.79618835 C-12.1028791 88.89760588 -12.19029365 81.99918886 -12.28752708 75.1008482 C-12.33718999 71.55547074 -12.38351894 68.01011884 -12.421875 64.46459961 C-12.46625991 60.37596029 -12.52578144 56.28765668 -12.5859375 52.19921875 C-12.59748871 50.94356613 -12.60903992 49.68791351 -12.62094116 48.39421082 C-12.7847542 38.49755385 -13.11127935 29.01150256 -18.5 20.4375 C-19.41265625 18.95056641 -19.41265625 18.95056641 -20.34375 17.43359375 C-21.91830762 14.95720969 -21.91830762 14.95720969 -24 13 C-24 12.01 -24 11.02 -24 10 C-20.76114441 8.12583577 -17.5073541 6.27929595 -14.25 4.4375 C-13.32960938 3.90447266 -12.40921875 3.37144531 -11.4609375 2.82226562 C-10.57148437 2.32275391 -9.68203125 1.82324219 -8.765625 1.30859375 C-7.94868164 0.84251709 -7.13173828 0.37644043 -6.29003906 -0.10375977 C-3.64207526 -1.14007908 -2.59097729 -1.09947558 0 0 Z " fill="#FDFDFE" transform="translate(75,137)"/>
</svg>
