<?xml version="1.0" encoding="UTF-8"?>
<svg version="1.1" xmlns="http://www.w3.org/2000/svg" width="400" height="400">
<path d="M0 0 C132 0 264 0 400 0 C400 132 400 264 400 400 C268 400 136 400 0 400 C0 268 0 136 0 0 Z " fill="#F17133" transform="translate(0,0)"/>
<path d="M0 0 C2.4375 0.3125 2.4375 0.3125 4.4375 2.3125 C5.675 2.498125 5.675 2.498125 6.9375 2.6875 C9.4375 3.3125 9.4375 3.3125 10.5703125 5.05859375 C12.43024256 9.89273629 12.18795772 15.09701829 10.5390625 19.96484375 C9.57551208 22.12770693 8.56402214 24.23044568 7.4375 26.3125 C8.675 26.4053125 8.675 26.4053125 9.9375 26.5 C17.71754894 28.30608279 21.46863562 31.85756513 25.6875 38.625 C27.81637869 42.29048179 29.78875797 45.96450592 31.5625 49.8125 C33.77698235 53.94620039 35.75999643 55.47775767 39.4375 58.3125 C42.45818378 61.33318378 43.35791142 62.65305175 43.875 66.9375 C43.4375 70.3125 43.4375 70.3125 42.1875 72.1875 C40.27406302 73.41756663 38.67038365 73.92752006 36.4375 74.3125 C36.4375 75.6325 36.4375 76.9525 36.4375 78.3125 C32.06833954 78.04500038 29.56497359 77.65023205 26.1875 74.8125 C22.35148802 71.79725635 18.86962273 71.71560989 14.10546875 71.4921875 C10.6418571 71.25891351 7.7194764 70.40649213 4.4375 69.3125 C4.08558594 70.00214844 3.73367188 70.69179687 3.37109375 71.40234375 C-4.81533809 86.98435109 -16.05829436 100.30062986 -32.97265625 106.578125 C-37.49405914 108.76256774 -40.4166203 111.60451027 -43.875 115.1875 C-44.52436523 115.85007812 -45.17373047 116.51265625 -45.84277344 117.1953125 C-53.46269763 125.09801468 -60.3931727 133.06499677 -64.5625 143.3125 C-66.28117343 145.03117343 -68.65463219 144.64170599 -71 144.8125 C-74.92684915 145.02669183 -74.92684915 145.02669183 -78.5625 146.3125 C-83.46665979 146.85054631 -87.97886343 147.16188792 -92.1875 144.3125 C-92.97125 143.6525 -93.755 142.9925 -94.5625 142.3125 C-94.2325 140.9925 -93.9025 139.6725 -93.5625 138.3125 C-91.46100989 137.92278001 -89.3561518 137.55118523 -87.25 137.1875 C-85.49236328 136.87425781 -85.49236328 136.87425781 -83.69921875 136.5546875 C-80.5625 136.3125 -80.5625 136.3125 -77.5625 138.3125 C-77.5625 137.6525 -77.5625 136.9925 -77.5625 136.3125 C-76.510625 136.085625 -75.45875 135.85875 -74.375 135.625 C-70.2489479 134.38801456 -68.22423672 132.81478515 -65.5625 129.3125 C-62.86900034 123.8189781 -60.5860844 118.36499907 -59.5625 112.3125 C-65.28069534 116.5039927 -68.42566809 119.99982148 -70.3828125 126.8828125 C-72.06784469 130.35330926 -74.18204791 132.54337115 -77.5625 134.3125 C-81.10390042 135.12935701 -84.56255874 135.28237374 -88.1875 135.375 C-89.59902344 135.46297852 -89.59902344 135.46297852 -91.0390625 135.55273438 C-97.84809607 135.81871225 -97.84809607 135.81871225 -101.203125 133.44140625 C-102.5625 131.3125 -102.5625 131.3125 -102.6875 129.1875 C-101.5625 127.3125 -101.5625 127.3125 -98.8125 126.125 C-95.16250887 125.21250222 -91.63361615 124.39981078 -87.87890625 124.09375 C-82.08566433 123.52138538 -82.08566433 123.52138538 -77.515625 120.1796875 C-76.0419203 117.94105989 -74.73667034 115.72029235 -73.5625 113.3125 C-75.48449219 113.34730469 -75.48449219 113.34730469 -77.4453125 113.3828125 C-90.0907907 113.54215263 -102.43048898 113.35650367 -114.5625 109.3125 C-114.65402344 109.98023438 -114.74554688 110.64796875 -114.83984375 111.3359375 C-121.47012328 138.64552128 -146.34568619 155.66699103 -168.8125 169.4375 C-185.86976764 179.89450984 -206.2908626 194.02489579 -213.5625 213.3125 C-214.63140143 218.00938072 -215.21164545 222.71646678 -215.75 227.5 C-215.91540291 228.82391973 -216.08233416 230.14764934 -216.25073242 231.47119141 C-217.02064325 237.67233173 -217.63895605 243.86549272 -218.0078125 250.10546875 C-218.07331299 251.13841064 -218.13881348 252.17135254 -218.20629883 253.2355957 C-218.31514509 255.14016893 -218.39524605 257.04670585 -218.44018555 258.95385742 C-218.77463191 265.08614156 -220.4765046 268.25062354 -224.73120117 272.67431641 C-228.7080579 276.23180323 -231.96171355 278.18340432 -237.4375 278.625 C-240.5625 278.3125 -240.5625 278.3125 -241.5625 277.3125 C-241.79638439 274.45911044 -241.98244081 272.10842173 -241.5625 269.3125 C-240.22916667 267.97916667 -238.89583333 266.64583333 -237.5625 265.3125 C-237.20762982 263.30734221 -237.20762982 263.30734221 -237.125 261.0625 C-236.8973546 257.43768484 -236.32619337 255.6933305 -234.0625 252.875 C-229.67515246 246.43938069 -230.62463989 237.816237 -230.5625 230.3125 C-230.54880371 229.36213867 -230.53510742 228.41177734 -230.52099609 227.43261719 C-230.21065491 214.81600298 -230.21065491 214.81600298 -231.5625 202.3125 C-232.03105988 195.47332787 -232.34162195 189.26748004 -228.5625 183.3125 C-224.38013817 178.8868688 -219.5301417 175.26386136 -214.69140625 171.59594727 C-197.46118781 158.52157395 -191.30759373 146.21179551 -188.19140625 124.94921875 C-186.61676831 114.6397162 -186.61676831 114.6397162 -190.5 105.4375 C-194.24722588 100.49435097 -195.08175733 96.51943651 -194.5625 90.3125 C-193.5625 87.3125 -193.5625 87.3125 -192.5625 85.3125 C-210.05389695 91.70358735 -220.1257182 110.98182149 -227.796875 126.84375 C-228.49655953 128.3509477 -229.18950794 129.86129462 -229.875 131.375 C-230.17607666 132.03314697 -230.47715332 132.69129395 -230.78735352 133.36938477 C-236.85458419 147.30617543 -239.88870044 161.87797188 -242.625 176.75 C-248.71389595 209.41630794 -248.71389595 209.41630794 -253.5 224.1875 C-253.88502686 225.38052734 -253.88502686 225.38052734 -254.27783203 226.59765625 C-259.54413899 242.58896852 -267.13318226 256.61336503 -282.46875 264.87890625 C-294.18857519 270.40801733 -306.82972054 271.32435134 -319.125 267.125 C-324.19172031 265.0867308 -328.46076515 262.92593308 -332.5625 259.3125 C-332.5625 258.6525 -332.5625 257.9925 -332.5625 257.3125 C-330.45801062 257.45359986 -328.3539123 257.60054175 -326.25 257.75 C-325.07824219 257.83121094 -323.90648437 257.91242188 -322.69921875 257.99609375 C-319.5625 258.3125 -319.5625 258.3125 -316.5625 259.3125 C-305.24353016 260.22081239 -294.63214944 258.44139818 -285.5625 251.3125 C-269.8493993 237.56353689 -268.14243947 217.74318088 -266.20849609 198.11303711 C-265.89962666 195.01771912 -265.55012369 192.27537106 -264.5625 189.3125 C-264.31394199 187.5459246 -264.1028012 185.77396376 -263.9140625 184 C-263.79764404 182.93418701 -263.68122559 181.86837402 -263.5612793 180.77026367 C-263.43793213 179.62920166 -263.31458496 178.48813965 -263.1875 177.3125 C-261.076534 158.68204234 -258.19278633 141.2307835 -252.5625 123.3125 C-252.30533203 122.49265625 -252.04816406 121.6728125 -251.78320312 120.828125 C-244.1278237 96.67374718 -234.28629916 73.83218652 -216.5625 55.3125 C-215.55123047 54.18908203 -215.55123047 54.18908203 -214.51953125 53.04296875 C-194.44345658 31.53557919 -162.67133313 21.3872207 -133.9921875 19.890625 C-108.00043671 19.09203244 -85.77855288 23.710603 -65.24023438 40.04907227 C-54.76525959 48.334539 -45.78994199 50.05183873 -32.5625 49.3125 C-24.39577382 47.97593528 -20.3132275 45.04353996 -15.359375 38.32421875 C-10.40395554 30.27639059 -8.81426573 24.30457076 -8.69140625 14.90234375 C-8.50867194 9.8134701 -7.51736207 5.59052355 -4.12109375 1.6328125 C-2.5625 0.3125 -2.5625 0.3125 0 0 Z " fill="#FEFDFC" transform="translate(344.5625,60.6875)"/>
<path d="M0 0 C0.33 0 0.66 0 1 0 C1 8.91 1 17.82 1 27 C-8.57 27 -18.14 27 -28 27 C-28 26.67 -28 26.34 -28 26 C-27.3709375 25.85304688 -26.741875 25.70609375 -26.09375 25.5546875 C-16.76490408 23.11008029 -9.34992332 18.15151039 -4 10 C-2.45899961 6.73135631 -1.16912554 3.41797289 0 0 Z " fill="#070301" transform="translate(399,373)"/>
<path d="M0 0 C8.91 0 17.82 0 27 0 C27 8.91 27 17.82 27 27 C25.28024315 24.42036472 24.08825997 22.05405945 22.8125 19.25 C18.70432254 11.04558746 13.52574197 6.81528323 5.234375 3.04296875 C3 2 3 2 0 0 Z " fill="#060301" transform="translate(373,0)"/>
<path d="M0 0 C1.71229983 2.56844975 2.869925 4.89210567 4.125 7.6875 C9.28766667 17.95297633 16.31879359 22.29718178 27 26 C27 26.33 27 26.66 27 27 C18.09 27 9.18 27 0 27 C0 18.09 0 9.18 0 0 Z " fill="#060201" transform="translate(0,373)"/>
<path d="M0 0 C8.91 0 17.82 0 27 0 C24.43155025 1.71229983 22.10789433 2.869925 19.3125 4.125 C9.04702367 9.28766667 4.70281822 16.31879359 1 27 C0.67 27 0.34 27 0 27 C0 18.09 0 9.18 0 0 Z " fill="#050301" transform="translate(0,0)"/>
<path d="M0 0 C-0.52818171 7.92272564 -3.58726105 15.74591885 -8.9375 21.6875 C-12 24 -12 24 -15.375 24.375 C-16.674375 24.189375 -16.674375 24.189375 -18 24 C-18 24.66 -18 25.32 -18 26 C-18.66 26 -19.32 26 -20 26 C-20 25.01 -20 24.02 -20 23 C-24.62 23 -29.24 23 -34 23 C-34 22.67 -34 22.34 -34 22 C-32.90300781 21.97421875 -31.80601562 21.9484375 -30.67578125 21.921875 C-29.22131552 21.8655731 -27.76688997 21.80822623 -26.3125 21.75 C-25.59126953 21.73582031 -24.87003906 21.72164062 -24.12695312 21.70703125 C-19.2419549 21.48397197 -16.47396276 20.73273094 -13 17 C-11.82197221 14.69028503 -11.82197221 14.69028503 -11.125 12.1875 C-9.4416234 7.530618 -5.71519342 0 0 0 Z " fill="#F27A3A" transform="translate(285,173)"/>
<path d="M0 0 C-1.65863505 4.32504836 -4.871041 7.09418825 -8.125 10.25 C-8.68832031 10.80429688 -9.25164062 11.35859375 -9.83203125 11.9296875 C-11.21686028 13.29104485 -12.60783204 14.64614859 -14 16 C-14.99 15.67 -15.98 15.34 -17 15 C-14.54976242 12.49195282 -12.08852402 9.9949924 -9.625 7.5 C-8.57699219 6.42685547 -8.57699219 6.42685547 -7.5078125 5.33203125 C-6.8375 4.65527344 -6.1671875 3.97851562 -5.4765625 3.28125 C-4.85861816 2.65283203 -4.24067383 2.02441406 -3.60400391 1.37695312 C-2 0 -2 0 0 0 Z " fill="#F27D3E" transform="translate(311,167)"/>
<path d="M0 0 C2.72923388 -0.0270817 5.45819637 -0.04687847 8.1875 -0.0625 C8.95642578 -0.07087891 9.72535156 -0.07925781 10.51757812 -0.08789062 C14.48526789 -0.10491934 18.12571234 0.01395885 22 1 C22 1.33 22 1.66 22 2 C20.02 2 18.04 2 16 2 C16 2.66 16 3.32 16 4 C15.34 4 14.68 4 14 4 C14 3.01 14 2.02 14 1 C9.38 1 4.76 1 0 1 C0 0.67 0 0.34 0 0 Z " fill="#F59969" transform="translate(251,195)"/>
<path d="M0 0 C4.95 0 9.9 0 15 0 C14.34 1.32 13.68 2.64 13 4 C12.67 3.01 12.34 2.02 12 1 C8.04 1 4.08 1 0 1 C0 0.67 0 0.34 0 0 Z " fill="#F3874C" transform="translate(256,174)"/>
</svg>
