<?xml version="1.0" encoding="UTF-8"?>
<svg version="1.1" xmlns="http://www.w3.org/2000/svg" width="256" height="256">
<path d="M0 0 C0.70817871 0.22461914 1.41635742 0.44923828 2.14599609 0.68066406 C22.98508218 7.38783302 40.2814572 18.95877925 56 34 C57.16208984 35.09054688 57.16208984 35.09054688 58.34765625 36.203125 C60 38 60 38 60 40 C60.66 40 61.32 40 62 40 C74.81051325 54.59348771 83.1801878 74.38229406 88 93 C88.31839844 94.17691406 88.63679687 95.35382813 88.96484375 96.56640625 C93.47351005 116.15936625 92.46263193 137.7206185 87 157 C86.79632813 157.72155273 86.59265625 158.44310547 86.3828125 159.18652344 C81.50693343 175.74795837 73.08535745 192.69279289 62 206 C61.34 206 60.68 206 60 206 C59.76023438 206.56332031 59.52046875 207.12664062 59.2734375 207.70703125 C51.82311173 221.12218839 35.20242292 230.06355684 22 237 C21.41379883 237.31211426 20.82759766 237.62422852 20.22363281 237.94580078 C-10.61697644 254.12822919 -46.36124237 254.60639667 -79.14892578 244.62182617 C-95.63420432 239.34966697 -110.93560652 230.41036935 -124 219 C-124 218.34 -124 217.68 -124 217 C-124.86625 216.6596875 -124.86625 216.6596875 -125.75 216.3125 C-128.59591381 214.65238361 -129.99841921 212.60812043 -132 210 C-132.804375 209.21625 -133.60875 208.4325 -134.4375 207.625 C-136.90168807 205.10070979 -138.82578043 202.56041964 -140.7890625 199.6484375 C-141.9707877 197.9483224 -141.9707877 197.9483224 -143.54296875 196.48046875 C-146.03729785 193.94601639 -148 190.59983546 -148 187 C-148.66 187 -149.32 187 -150 187 C-150.29003906 185.93458984 -150.29003906 185.93458984 -150.5859375 184.84765625 C-150.84632813 183.92855469 -151.10671875 183.00945312 -151.375 182.0625 C-151.63023437 181.14597656 -151.88546875 180.22945312 -152.1484375 179.28515625 C-152.76660104 176.83254913 -152.76660104 176.83254913 -155 176 C-155.9296875 173.84204102 -155.9296875 173.84204102 -156.875 171.00390625 C-157.22046875 169.96943359 -157.5659375 168.93496094 -157.921875 167.86914062 C-158.27765625 166.77794922 -158.6334375 165.68675781 -159 164.5625 C-159.35578125 163.50611328 -159.7115625 162.44972656 -160.078125 161.36132812 C-164.34594806 148.4384236 -165.47682438 136.78088705 -165.5 123.25 C-165.5023465 122.38172577 -165.50469299 121.51345154 -165.5071106 120.61886597 C-165.49146605 106.63247893 -164.22436974 94.10393508 -159 81 C-158.71672852 80.26362305 -158.43345703 79.52724609 -158.14160156 78.76855469 C-156.30561235 74.06816994 -154.24167253 69.519321 -152 65 C-151.16662109 63.29263672 -151.16662109 63.29263672 -150.31640625 61.55078125 C-135.2867984 32.22048418 -109.26187231 11.93983236 -78.5 1.25 C-76.00461556 0.48478336 -73.50455799 -0.26536452 -71 -1 C-69.82695313 -1.39316406 -68.65390625 -1.78632812 -67.4453125 -2.19140625 C-46.27104335 -8.40512327 -20.74346173 -6.89464872 0 0 Z " fill="#1F4498" transform="translate(165,5)"/>
<path d="M0 0 C3.12283434 1.79461584 6.05012968 3.81222836 9 5.875 C14.42975056 9.64457503 20.48320134 11.70781067 26.6875 13.875 C26.6875 15.855 26.6875 17.835 26.6875 19.875 C24.89505859 19.93107422 24.89505859 19.93107422 23.06640625 19.98828125 C9.36498038 19.91252769 9.36498038 19.91252769 -2.3125 25.875 C-2.05832873 29.24276936 -1.64539858 32.11263684 -0.2890625 35.21875 C2.11460523 41.75672624 1.51146382 49.58934493 -0.875 56.0625 C-7.830834 71.01633128 -18.38807537 78.60587396 -33.3125 84.875 C-34.3025 85.37 -34.3025 85.37 -35.3125 85.875 C-34.42737256 91.3627901 -33.12534681 97.59215587 -29.625 102 C-27.55697386 104.95432306 -27.93795162 107.37921515 -28.3125 110.875 C-29.8125 113.3125 -29.8125 113.3125 -31.3125 114.875 C-34.17974686 114.30155063 -35.1739515 114.0135485 -37.3125 111.875 C-37.7265625 109.0546875 -37.7265625 109.0546875 -37.9375 105.75 C-38.04964844 104.10644531 -38.04964844 104.10644531 -38.1640625 102.4296875 C-38.21304688 101.58664063 -38.26203125 100.74359375 -38.3125 99.875 C-39.42625 99.648125 -40.54 99.42125 -41.6875 99.1875 C-45.3125 97.875 -45.3125 97.875 -46.75 95.25 C-46.935625 94.46625 -47.12125 93.6825 -47.3125 92.875 C-48.529375 92.7925 -49.74625 92.71 -51 92.625 C-51.68449219 92.57859375 -52.36898437 92.5321875 -53.07421875 92.484375 C-56.45070843 93.07364021 -57.98750243 94.38910294 -60.3125 96.875 C-60.99221934 100.16617511 -60.99221934 100.16617511 -60.75 103.75 C-60.72808594 104.94367188 -60.70617187 106.13734375 -60.68359375 107.3671875 C-60.24044262 111.5561319 -59.19352066 115.11295868 -57.3125 118.875 C-55.14974158 119.02948274 -52.98059047 119.09720397 -50.8125 119.125 C-43.77256495 119.49211318 -39.59926702 121.30152694 -34.3125 125.875 C-34.84537613 129.61132911 -34.98764787 130.58882075 -37.9375 133.1875 C-42.22410253 135.33080127 -45.6705557 135.74672552 -50.3125 134.21508789 C-52.42427182 133.30632949 -54.45747908 132.30482301 -56.5 131.25 C-57.19802734 130.91871094 -57.89605469 130.58742187 -58.61523438 130.24609375 C-63.24609335 127.91083661 -65.93814017 125.66034218 -68.3125 120.875 C-68.6328125 118.1640625 -68.6328125 118.1640625 -68.4375 115.5 C-68.26556054 110.45185744 -68.52945027 106.62979928 -70.3125 101.875 C-75.02772491 98.20948405 -79.39910741 98.47979076 -85.15625 98.37890625 C-88.98095665 97.76827858 -90.47769064 96.45337101 -93.3125 93.875 C-94.79752252 92.81209005 -96.29711239 91.76915153 -97.8125 90.75 C-98.5446875 90.25242187 -99.276875 89.75484375 -100.03125 89.2421875 C-104.48537566 86.57276288 -108.10708523 85.28570776 -113.3125 85.875 C-119.94105076 87.76402385 -124.92033431 90.84040788 -130.20703125 95.19140625 C-133.88418666 98.13176614 -137.480121 100.875 -142.3125 100.875 C-142.77818161 95.63866901 -143.09486621 92.05972597 -140.125 87.5625 C-139.196875 86.675625 -138.26875 85.78875 -137.3125 84.875 C-129.30055372 76.98049267 -123.31543002 69.80977267 -119.47851562 59.2331543 C-117.3868675 53.63597882 -114.67061202 49.88753486 -110.3125 45.875 C-109.76851562 45.33617187 -109.22453125 44.79734375 -108.6640625 44.2421875 C-104.72821673 40.56503582 -100.51532028 38.37010435 -95.65625 36.1015625 C-93.49293684 34.96942861 -92.00592442 33.8556282 -90.25 32.1875 C-86.87399131 29.52979103 -84.48300774 29.06773593 -80.34765625 28.3359375 C-77.78145299 27.75472448 -76.32108285 26.53727546 -74.3125 24.875 C-72.32613702 24.16873761 -70.32401741 23.50606429 -68.3125 22.875 C-67.07760262 22.36790384 -65.84838849 21.84676459 -64.625 21.3125 C-59.84663437 19.23886963 -56.25289991 18.71712828 -51.0625 18.5 C-43.26293604 18.12443543 -43.26293604 18.12443543 -36.3125 14.875 C-33.96288741 11.90457234 -31.76284426 8.84456269 -29.546875 5.7734375 C-22.269502 -3.66679111 -10.74617467 -5.16352854 0 0 Z " fill="#FBFBFD" transform="translate(185.3125,63.125)"/>
<path d="M0 0 C0.70817871 0.22461914 1.41635742 0.44923828 2.14599609 0.68066406 C22.98508218 7.38783302 40.2814572 18.95877925 56 34 C57.16208984 35.09054688 57.16208984 35.09054688 58.34765625 36.203125 C60 38 60 38 60 40 C60.66 40 61.32 40 62 40 C74.81051325 54.59348771 83.1801878 74.38229406 88 93 C88.31839844 94.17691406 88.63679687 95.35382813 88.96484375 96.56640625 C93.47351005 116.15936625 92.46263193 137.7206185 87 157 C86.79632813 157.72155273 86.59265625 158.44310547 86.3828125 159.18652344 C81.50693343 175.74795837 73.08535745 192.69279289 62 206 C61.34 206 60.68 206 60 206 C59.76023438 206.56332031 59.52046875 207.12664062 59.2734375 207.70703125 C51.82311173 221.12218839 35.20242292 230.06355684 22 237 C21.41379883 237.31211426 20.82759766 237.62422852 20.22363281 237.94580078 C-10.61697644 254.12822919 -46.36124237 254.60639667 -79.14892578 244.62182617 C-95.63420432 239.34966697 -110.93560652 230.41036935 -124 219 C-124 218.34 -124 217.68 -124 217 C-124.86625 216.6596875 -124.86625 216.6596875 -125.75 216.3125 C-128.59591381 214.65238361 -129.99841921 212.60812043 -132 210 C-132.804375 209.21625 -133.60875 208.4325 -134.4375 207.625 C-136.90168807 205.10070979 -138.82578043 202.56041964 -140.7890625 199.6484375 C-141.9707877 197.9483224 -141.9707877 197.9483224 -143.54296875 196.48046875 C-146.03729785 193.94601639 -148 190.59983546 -148 187 C-148.66 187 -149.32 187 -150 187 C-150.29003906 185.93458984 -150.29003906 185.93458984 -150.5859375 184.84765625 C-150.84632813 183.92855469 -151.10671875 183.00945312 -151.375 182.0625 C-151.63023437 181.14597656 -151.88546875 180.22945312 -152.1484375 179.28515625 C-152.76660104 176.83254913 -152.76660104 176.83254913 -155 176 C-155.9296875 173.84204102 -155.9296875 173.84204102 -156.875 171.00390625 C-157.22046875 169.96943359 -157.5659375 168.93496094 -157.921875 167.86914062 C-158.27765625 166.77794922 -158.6334375 165.68675781 -159 164.5625 C-159.35578125 163.50611328 -159.7115625 162.44972656 -160.078125 161.36132812 C-164.34594806 148.4384236 -165.47682438 136.78088705 -165.5 123.25 C-165.5023465 122.38172577 -165.50469299 121.51345154 -165.5071106 120.61886597 C-165.49146605 106.63247893 -164.22436974 94.10393508 -159 81 C-158.71672852 80.26362305 -158.43345703 79.52724609 -158.14160156 78.76855469 C-156.30561235 74.06816994 -154.24167253 69.519321 -152 65 C-151.16662109 63.29263672 -151.16662109 63.29263672 -150.31640625 61.55078125 C-135.2867984 32.22048418 -109.26187231 11.93983236 -78.5 1.25 C-76.00461556 0.48478336 -73.50455799 -0.26536452 -71 -1 C-69.82695313 -1.39316406 -68.65390625 -1.78632812 -67.4453125 -2.19140625 C-46.27104335 -8.40512327 -20.74346173 -6.89464872 0 0 Z M-67 9 C-68.10843262 9.29028076 -68.10843262 9.29028076 -69.23925781 9.58642578 C-99.27162765 18.02757045 -124.38074129 38.19135953 -140 65 C-155.26376702 92.28513063 -159.60496025 123.78931198 -151.43017578 154.11376953 C-146.2655558 171.85919012 -137.2557692 188.20513421 -125 202 C-123.74123047 203.42699219 -123.74123047 203.42699219 -122.45703125 204.8828125 C-102.83080076 225.72640373 -74.21983305 239.3648728 -45.56640625 240.37109375 C-42.89669532 240.4118527 -40.23201817 240.43837199 -37.5625 240.4375 C-36.86367706 240.4385675 -36.16485413 240.43963501 -35.44485474 240.44073486 C-23.09908536 240.41364576 -11.73773472 238.94136644 0 235 C0.68787598 234.77538086 1.37575195 234.55076172 2.08447266 234.31933594 C16.22401331 229.57044108 28.73719059 221.67960311 40 212 C40.68320313 211.44957031 41.36640625 210.89914063 42.0703125 210.33203125 C62.90042903 193.13697427 76.76645375 164.49489343 80 138 C80.314256 132.95505664 80.38185324 127.92894976 80.375 122.875 C80.37445618 122.19501953 80.37391235 121.51503906 80.37335205 120.81445312 C80.33288184 109.78065389 79.52224499 99.49436009 76 89 C75.78569336 88.35756348 75.57138672 87.71512695 75.35058594 87.05322266 C70.27607052 72.37996957 62.81226438 59.01395621 53 47 C52.35289062 46.19949219 51.70578125 45.39898437 51.0390625 44.57421875 C33.39419123 23.7244627 5.8833302 9.83168009 -21 6 C-25.45071317 5.78885346 -29.90048066 5.77198223 -34.35546875 5.75976562 C-36.46656121 5.75015227 -38.57663915 5.71912338 -40.6875 5.6875 C-49.81321852 5.61613531 -58.12728453 6.6509999 -67 9 Z " fill="#F9F9FA" transform="translate(165,5)"/>
<path d="M0 0 C0.70817871 0.22461914 1.41635742 0.44923828 2.14599609 0.68066406 C22.98508218 7.38783302 40.2814572 18.95877925 56 34 C57.16208984 35.09054688 57.16208984 35.09054688 58.34765625 36.203125 C60 38 60 38 60 40 C60.66 40 61.32 40 62 40 C74.81051325 54.59348771 83.1801878 74.38229406 88 93 C88.31839844 94.17691406 88.63679687 95.35382813 88.96484375 96.56640625 C93.47351005 116.15936625 92.46263193 137.7206185 87 157 C86.79632813 157.72155273 86.59265625 158.44310547 86.3828125 159.18652344 C81.50693343 175.74795837 73.08535745 192.69279289 62 206 C61.34 206 60.68 206 60 206 C59.76023438 206.56332031 59.52046875 207.12664062 59.2734375 207.70703125 C51.82311173 221.12218839 35.20242292 230.06355684 22 237 C21.41379883 237.31211426 20.82759766 237.62422852 20.22363281 237.94580078 C-10.61697644 254.12822919 -46.36124237 254.60639667 -79.14892578 244.62182617 C-95.63420432 239.34966697 -110.93560652 230.41036935 -124 219 C-124 218.34 -124 217.68 -124 217 C-124.86625 216.6596875 -124.86625 216.6596875 -125.75 216.3125 C-128.59591381 214.65238361 -129.99841921 212.60812043 -132 210 C-132.804375 209.21625 -133.60875 208.4325 -134.4375 207.625 C-136.90168807 205.10070979 -138.82578043 202.56041964 -140.7890625 199.6484375 C-141.9707877 197.9483224 -141.9707877 197.9483224 -143.54296875 196.48046875 C-146.03729785 193.94601639 -148 190.59983546 -148 187 C-148.66 187 -149.32 187 -150 187 C-150.29003906 185.93458984 -150.29003906 185.93458984 -150.5859375 184.84765625 C-150.84632813 183.92855469 -151.10671875 183.00945312 -151.375 182.0625 C-151.63023437 181.14597656 -151.88546875 180.22945312 -152.1484375 179.28515625 C-152.76660104 176.83254913 -152.76660104 176.83254913 -155 176 C-155.9296875 173.84204102 -155.9296875 173.84204102 -156.875 171.00390625 C-157.22046875 169.96943359 -157.5659375 168.93496094 -157.921875 167.86914062 C-158.27765625 166.77794922 -158.6334375 165.68675781 -159 164.5625 C-159.35578125 163.50611328 -159.7115625 162.44972656 -160.078125 161.36132812 C-164.34594806 148.4384236 -165.47682438 136.78088705 -165.5 123.25 C-165.5023465 122.38172577 -165.50469299 121.51345154 -165.5071106 120.61886597 C-165.49146605 106.63247893 -164.22436974 94.10393508 -159 81 C-158.71672852 80.26362305 -158.43345703 79.52724609 -158.14160156 78.76855469 C-156.30561235 74.06816994 -154.24167253 69.519321 -152 65 C-151.16662109 63.29263672 -151.16662109 63.29263672 -150.31640625 61.55078125 C-135.2867984 32.22048418 -109.26187231 11.93983236 -78.5 1.25 C-76.00461556 0.48478336 -73.50455799 -0.26536452 -71 -1 C-69.82695313 -1.39316406 -68.65390625 -1.78632812 -67.4453125 -2.19140625 C-46.27104335 -8.40512327 -20.74346173 -6.89464872 0 0 Z M-66 0 C-67.77697266 0.41765625 -67.77697266 0.41765625 -69.58984375 0.84375 C-102.26512812 9.37093332 -129.74296468 30.17723637 -146.95654297 59.17626953 C-151.80137062 67.64394912 -155.33545232 76.47185604 -158.3125 85.75 C-158.67637817 86.88344849 -158.67637817 86.88344849 -159.04760742 88.03979492 C-162.55782925 99.51098644 -163.40877411 110.63730176 -163.375 122.5625 C-163.37412384 123.31733673 -163.37324768 124.07217346 -163.37234497 124.84988403 C-163.32835024 136.33646715 -162.6750791 147.05029586 -159 158 C-158.75330566 158.76763672 -158.50661133 159.53527344 -158.25244141 160.32617188 C-147.91964231 192.01595966 -127.7621845 218.65578506 -97.83154297 234.08251953 C-69.80543579 248.12172385 -38.83409229 253.68133936 -8 246 C-6.12441406 245.54173828 -6.12441406 245.54173828 -4.2109375 245.07421875 C12.03565495 240.52451109 29.15261539 233.08142109 42 222 C43.28003906 220.90558594 43.28003906 220.90558594 44.5859375 219.7890625 C47.10512045 217.57248411 49.55894075 215.30203745 52 213 C52.67675781 212.38769531 53.35351562 211.77539062 54.05078125 211.14453125 C71.00426947 195.21029082 82.04864666 171.48055212 87 149 C87.24105469 147.90945312 87.48210937 146.81890625 87.73046875 145.6953125 C90.74607241 128.81602757 90.1398628 110.61805392 86 94 C85.54173828 92.12441406 85.54173828 92.12441406 85.07421875 90.2109375 C80.52451109 73.96434505 73.08142109 56.84738461 62 44 C60.90558594 42.71996094 60.90558594 42.71996094 59.7890625 41.4140625 C57.57248411 38.89487955 55.30203745 36.44105925 53 34 C52.38769531 33.32324219 51.77539062 32.64648438 51.14453125 31.94921875 C35.21029082 14.99573053 11.48055212 3.95135334 -11 -1 C-12.09054688 -1.24105469 -13.18109375 -1.48210938 -14.3046875 -1.73046875 C-31.2705254 -4.76153571 -49.28274885 -3.97784848 -66 0 Z " fill="#090909" transform="translate(165,5)"/>
<path d="M0 0 C2.05014894 1.37882566 3.91613959 2.79338564 5.7578125 4.44140625 C10.94954718 8.94887465 15.05533537 9.48717486 21.88671875 9.51171875 C25.37231343 9.85536893 27.15005382 10.72801748 29.9375 12.8125 C32.07588282 16.02007423 32.28279264 17.38002919 32.5625 21.125 C32.64113281 22.1046875 32.71976562 23.084375 32.80078125 24.09375 C32.9375 26.8125 32.9375 26.8125 32.75 30.125 C33.02015431 33.99721182 34.53135814 35.78752613 36.9375 38.8125 C39.24443142 40.43432797 41.67063239 41.56270144 44.25 42.6875 C44.88873047 42.99429688 45.52746094 43.30109375 46.18554688 43.6171875 C50.55183693 45.59904965 54.06820317 46.29472505 58.9375 45.8125 C62.3207553 43.9478694 62.3207553 43.9478694 64.9375 41.8125 C64.98260361 39.43352997 64.98260361 39.43352997 63.9375 36.8125 C57.79305166 31.6683107 50.67428305 32.02711257 42.9375 31.8125 C42.4425 29.8325 42.4425 29.8325 41.9375 27.8125 C42.5975 28.1425 43.2575 28.4725 43.9375 28.8125 C45.75707766 28.98529742 47.57697491 29.15548519 49.3984375 29.30712891 C57.02780177 29.98709255 62.42258414 31.04360775 67.9375 36.8125 C67.77638798 41.0014125 67.55696287 43.15955265 64.625 46.25 C59.69392252 48.92687063 54.33233283 48.75100938 48.9375 47.8125 C41.86060637 45.16566182 35.02302374 41.51303646 30.8125 35.046875 C29.4287491 31.51336825 29.5682189 28.25929175 29.79296875 24.51171875 C29.98997653 20.83246533 29.48618017 17.44750614 28.9375 13.8125 C24.52936567 12.58801824 20.69808178 11.7826201 16.125 11.6875 C10.40340694 11.22906727 6.93762278 8.3575098 2.578125 4.8203125 C-2.58746968 0.8926266 -6.5470301 -0.76923838 -13.0625 -0.1875 C-18.26419805 1.14214754 -21.8574588 3.56867516 -26.0625 6.75 C-34.37570755 12.98490566 -34.37570755 12.98490566 -39.0625 14.8125 C-40.7125 14.4825 -42.3625 14.1525 -44.0625 13.8125 C-44.0625 10.1825 -44.0625 6.5525 -44.0625 2.8125 C-43.7325 2.8125 -43.4025 2.8125 -43.0625 2.8125 C-43.0625 6.1125 -43.0625 9.4125 -43.0625 12.8125 C-36.64098133 10.87392833 -31.99571525 7.81501469 -26.67578125 3.75 C-18.23276428 -2.50969569 -9.604863 -5.8497201 0 0 Z " fill="#1D233C" transform="translate(85.0625,151.1875)"/>
<path d="M0 0 C1.38386034 3.05700222 0.90780163 4.26422344 -0.22265625 7.50390625 C-0.8222818 8.86287854 -1.43641364 10.21551361 -2.0625 11.5625 C-2.38686035 12.27631836 -2.7112207 12.99013672 -3.04541016 13.72558594 C-16.5373394 43.06046098 -39.22151794 65.7723099 -69.58984375 77.37109375 C-82.73709926 82.01586188 -95.41609965 84.49051259 -109.34350586 84.28125 C-111.4603017 84.24965972 -113.57634918 84.24021436 -115.69335938 84.234375 C-128.14699436 84.15123035 -128.14699436 84.15123035 -134 83 C-134.33 82.34 -134.66 81.68 -135 81 C-134.30519531 81.0721875 -133.61039062 81.144375 -132.89453125 81.21875 C-97.41257911 84.45664677 -65.19019384 78.36037329 -36.953125 55.55078125 C-21.18543446 41.93133427 -6.46848765 23.37044923 -1.4375 2.6875 C-1 1 -1 1 0 0 Z " fill="#151521" transform="translate(239,161)"/>
<path d="M0 0 C2.64400196 1.32200098 2.60806225 2.30062458 3.5625 5.0625 C8.09607085 16.809336 14.72395594 27.54166394 23 37 C23.88365234 38.09828125 23.88365234 38.09828125 24.78515625 39.21875 C40.36897657 58.01197706 63.11481467 68.25217246 86 75 C86 75.33 86 75.66 86 76 C62.59833163 75.16422613 39.18475831 58.36575238 23.578125 41.94140625 C14.38887414 31.4573064 0 14.50813277 0 0 Z " fill="#161729" transform="translate(17,166)"/>
<path d="M0 0 C0.73149261 -0.00173218 1.46298523 -0.00346436 2.21664429 -0.00524902 C14.83838051 0.00785891 26.24854823 1.59346965 38.3125 5.4375 C39.61237672 5.81304098 40.91310751 6.18564376 42.21484375 6.5546875 C48.07569648 8.31909824 48.07569648 8.31909824 50.3125 9.4375 C50.8075 10.9225 50.8075 10.9225 51.3125 12.4375 C50.75304687 12.26734375 50.19359375 12.0971875 49.6171875 11.921875 C47.88410469 11.39804933 46.14956235 10.87904247 44.4140625 10.36328125 C42.28037106 9.72639854 40.15031473 9.07725017 38.0234375 8.41796875 C17.50289202 2.23401204 -3.47899682 2.34652081 -24.6875 4.4375 C-23.6875 2.4375 -23.6875 2.4375 -20.60546875 1.33984375 C-13.854249 -0.18559293 -6.8869396 -0.00038585 0 0 Z " fill="#040404" transform="translate(126.6875,-0.4375)"/>
<path d="M0 0 C0.99 0.495 0.99 0.495 2 1 C-6.31442102 10.26390737 -28.35199909 12.50500945 -40.31420898 13.18969727 C-43.73266837 13.26655267 -47.14331676 13.27324657 -50.5625 13.25 C-51.70396484 13.25773437 -52.84542969 13.26546875 -54.02148438 13.2734375 C-61.06299027 13.25735182 -68.21573269 13.08395472 -75 11 C-75.33 10.34 -75.66 9.68 -76 9 C-75.2678125 9.0721875 -74.535625 9.144375 -73.78125 9.21875 C-49.16298946 11.32888662 -25.1656038 10.66229666 -2.171875 0.78515625 C-1.45515625 0.52605469 -0.7384375 0.26695312 0 0 Z " fill="#030303" transform="translate(178,243)"/>
<path d="M0 0 C0.350625 0.94875 0.70125 1.8975 1.0625 2.875 C2.7714341 6.34336062 2.7714341 6.34336062 6.6875 7.375 C7.780625 7.58125 8.87375 7.7875 10 8 C10.07347656 9.26457031 10.07347656 9.26457031 10.1484375 10.5546875 C10.22320312 11.65039062 10.29796875 12.74609375 10.375 13.875 C10.44460937 14.96554688 10.51421875 16.05609375 10.5859375 17.1796875 C10.73253491 20.13046474 10.73253491 20.13046474 13 22 C15.08333333 21.83333333 15.08333333 21.83333333 17 21 C18.5547669 17.89046621 18.28644437 15.43733239 18 12 C16.69418644 9.9819245 15.36363208 7.97946592 14 6 C14.25 3.625 14.25 3.625 15 2 C16.00911458 3.79036458 17.01822917 5.58072917 18.02734375 7.37109375 C18.8972513 8.97878146 18.8972513 8.97878146 20 10 C20.9573991 19.4955157 20.9573991 19.4955157 18.25 23.75 C16 25 16 25 14 25 C11.10411033 23.55205516 9.83932612 22.75898918 8 20 C7.6597198 16.31008663 7.77067734 12.69464284 8 9 C6.02 9 4.04 9 2 9 C1.01 6.69 0.02 4.38 -1 2 C-4.9492568 2.55105909 -8.34920174 3.38935371 -12 5 C-12.11251733 11.07593562 -11.69260358 16.96445452 -11 23 C-15.1142762 18.60046731 -14.61020415 14.05570366 -14.47265625 8.30859375 C-14.0168458 5.11792063 -13.80508529 3.79190579 -11.5 1.625 C-7.18594645 -0.37795343 -4.69456569 -0.40470394 0 0 Z " fill="#161B34" transform="translate(138,155)"/>
<path d="M0 0 C0.33 0.66 0.66 1.32 1 2 C-0.12344907 4.53004385 -1.30890464 6.972776 -2.5625 9.4375 C-5.66836081 15.78449668 -8.2568918 22.13247997 -10.375 28.875 C-10.6129126 29.62193115 -10.8508252 30.3688623 -11.09594727 31.13842773 C-14.37698155 41.93214376 -15.34502464 52.43599042 -15.625 63.6875 C-15.66367188 64.97333984 -15.70234375 66.25917969 -15.7421875 67.58398438 C-15.8355269 70.72252168 -15.92131076 73.86106706 -16 77 C-16.33 77 -16.66 77 -17 77 C-18.40408328 58.25567154 -18.85033236 41.84451233 -12 24 C-11.55696533 22.83815186 -11.55696533 22.83815186 -11.10498047 21.65283203 C-8.1136464 14.01122876 -4.66179779 6.78079679 0 0 Z " fill="#060606" transform="translate(18,62)"/>
<path d="M0 0 C1.38386034 3.05700222 0.90780163 4.26422344 -0.22265625 7.50390625 C-0.8222818 8.86287854 -1.43641364 10.21551361 -2.0625 11.5625 C-2.38686035 12.27631836 -2.7112207 12.99013672 -3.04541016 13.72558594 C-12.25762893 33.75528531 -25.49405011 52.8236179 -45 64 C-45.33 63.34 -45.66 62.68 -46 62 C-44.89205078 61.21689453 -44.89205078 61.21689453 -43.76171875 60.41796875 C-24.63109411 46.53793486 -7.16394824 26.229565 -1.4375 2.6875 C-1 1 -1 1 0 0 Z " fill="#17182D" transform="translate(239,161)"/>
<path d="M0 0 C0.66 0.33 1.32 0.66 2 1 C3.81957766 1.17279742 5.63947491 1.34298519 7.4609375 1.49462891 C15.09030177 2.17459255 20.48508414 3.23110775 26 9 C25.83888798 13.1889125 25.61946287 15.34705265 22.6875 18.4375 C17.7725686 21.10560562 12.37442509 20.97889059 7 20 C2.40119361 18.02628437 -1.76576307 15.67713045 -6 13 C-6 12.01 -6 11.02 -6 10 C-4.92621094 10.5775 -3.85242188 11.155 -2.74609375 11.75 C-1.31028702 12.50074862 0.12593312 13.25070697 1.5625 14 C2.26697266 14.3815625 2.97144531 14.763125 3.69726562 15.15625 C8.2967646 17.53018495 11.70333882 18.62313661 17 18 C20.3832553 16.1353694 20.3832553 16.1353694 23 14 C23.04510361 11.62102997 23.04510361 11.62102997 22 9 C15.85555166 3.8558107 8.73678305 4.21461257 1 4 C0.67 2.68 0.34 1.36 0 0 Z " fill="#1A1C34" transform="translate(127,179)"/>
<path d="M0 0 C0.66 0 1.32 0 2 0 C6.12833817 15.82529634 6.99805921 33.90721122 4 50 C3.34 50 2.68 50 2 50 C2.01047363 49.1248877 2.02094727 48.24977539 2.03173828 47.34814453 C2.3224248 23.6047038 2.3224248 23.6047038 0 0 Z " fill="#020202" transform="translate(251,98)"/>
<path d="M0 0 C2.95786144 3.02828671 3.38629508 5.51758361 3.41015625 9.69726562 C3.39855469 10.39529297 3.38695312 11.09332031 3.375 11.8125 C3.38660156 12.49892578 3.39820313 13.18535156 3.41015625 13.89257812 C3.38185835 18.87772486 2.2477936 22.47758949 0 27 C-0.41378906 27.84304687 -0.82757813 28.68609375 -1.25390625 29.5546875 C-5.0349957 36.259067 -10.66395381 44.2725681 -18.3046875 46.74609375 C-18.86414063 46.82988281 -19.42359375 46.91367188 -20 47 C-15.50552147 42.36932515 -15.50552147 42.36932515 -13.390625 40.82421875 C-6.74734156 35.90270372 -2.02585416 27.71422995 0.71875 19.97265625 C1.12014005 17.15735102 1.13157274 14.40520973 1.125 11.5625 C1.12757813 10.45003906 1.13015625 9.33757812 1.1328125 8.19140625 C1.01399223 5.33622508 0.65353269 2.77492054 0 0 Z " fill="#161D35" transform="translate(184,96)"/>
<path d="M0 0 C0.33 0 0.66 0 1 0 C1.02187378 0.9115686 1.02187378 0.9115686 1.04418945 1.84155273 C1.35852559 13.63415605 1.99778518 25.03422638 4.37890625 36.6015625 C4.91064179 39.51105883 5.12965198 42.05746383 5 45 C0.61249544 41.28466534 0.56743785 36.4701327 0 31 C-0.2177688 25.59947255 -0.19117551 20.21579243 -0.125 14.8125 C-0.11494179 13.36914689 -0.105821 11.92578694 -0.09765625 10.48242188 C-0.07588691 6.98813606 -0.04151675 3.49411363 0 0 Z " fill="#020202" transform="translate(0,116)"/>
<path d="M0 0 C0.33 0 0.66 0 1 0 C0.93433838 0.62366455 0.86867676 1.2473291 0.80102539 1.88989258 C0.01823317 9.81629277 -0.31081665 17.72852994 -0.5625 25.6875 C-0.60568359 26.97333984 -0.64886719 28.25917969 -0.69335938 29.58398438 C-0.79836798 32.72257494 -0.90052405 35.86123004 -1 39 C-1.33 39 -1.66 39 -2 39 C-2.21882477 34.73234205 -2.41530023 30.46438355 -2.59204102 26.19482422 C-2.65506925 24.74565843 -2.72396385 23.29673445 -2.79907227 21.84814453 C-3.55997411 7.02843217 -3.55997411 7.02843217 0 0 Z " fill="#262626" transform="translate(3,100)"/>
<path d="M0 0 C4.64749169 1.31506802 7.9637056 3.16142515 11.8125 6.0625 C12.76769531 6.77535156 13.72289063 7.48820313 14.70703125 8.22265625 C17 10 17 10 18 11 C21.36209065 11.28469316 24.72414001 11.44895063 28.09375 11.62109375 C29.0528125 11.74613281 30.011875 11.87117187 31 12 C31.33 12.66 31.66 13.32 32 14 C22.15876424 14.21249632 16.17273664 13.60761968 8.46484375 7.0078125 C5.79892865 4.8362113 3.11344636 3.43697524 0 2 C0 1.34 0 0.68 0 0 Z " fill="#171C32" transform="translate(79,149)"/>
<path d="M0 0 C4.72899673 5.8324293 6.45964031 8.87296903 6.3203125 16.38671875 C6 19 6 19 4.25 21.75 C2 23 2 23 -0.0625 22.875 C-2 22 -2 22 -5 20 C-4.505 18.515 -4.505 18.515 -4 17 C-3.5875 17.515625 -3.175 18.03125 -2.75 18.5625 C-1.10125353 20.2588526 -1.10125353 20.2588526 1.125 19.8125 C3.18964132 19.1564434 3.18964132 19.1564434 4 17 C4.55983555 11.1777103 3.3299058 8.68268003 0 4 C0 2.68 0 1.36 0 0 Z " fill="#151930" transform="translate(152,157)"/>
<path d="M0 0 C1.68416016 0.86625 1.68416016 0.86625 3.40234375 1.75 C4.91359869 2.50093413 6.42534411 3.25088177 7.9375 4 C8.67291016 4.3815625 9.40832031 4.763125 10.16601562 5.15625 C15.72337581 7.87426022 19.82396791 8.39251842 26 8 C26 8.66 26 9.32 26 10 C16.16582212 11.11631208 9.0345574 8.81726869 1 3 C0.67 2.01 0.34 1.02 0 0 Z " fill="#101227" transform="translate(120,189)"/>
<path d="M0 0 C0 0.66 0 1.32 0 2 C-1.19238281 2.34933594 -2.38476562 2.69867188 -3.61328125 3.05859375 C-5.17969593 3.51820045 -6.74610171 3.97783745 -8.3125 4.4375 C-9.49102539 4.78264648 -9.49102539 4.78264648 -10.69335938 5.13476562 C-11.45068359 5.35712891 -12.20800781 5.57949219 -12.98828125 5.80859375 C-14.03302612 6.11494751 -14.03302612 6.11494751 -15.09887695 6.42749023 C-16.74173766 6.92222612 -18.37230856 7.45743619 -20 8 C-19.67 7.01 -19.34 6.02 -19 5 C-16.63671875 3.8671875 -16.63671875 3.8671875 -13.6875 2.875 C-12.72199219 2.54242188 -11.75648437 2.20984375 -10.76171875 1.8671875 C-6.88172251 0.64885771 -4.11730378 0 0 0 Z " fill="#0F0F0F" transform="translate(102,3)"/>
<path d="M0 0 C0.66 0.66 1.32 1.32 2 2 C4.31765729 2.71927295 6.65095874 3.3909893 9 4 C9 7.63 9 11.26 9 15 C8.01 15.495 8.01 15.495 7 16 C7 12.37 7 8.74 7 5 C5.02 5 3.04 5 1 5 C0.67 3.35 0.34 1.7 0 0 Z " fill="#282D51" transform="translate(139,159)"/>
<path d="M0 0 C0.75390625 1.6875 0.75390625 1.6875 1 4 C-2.88806523 9.70859459 -7.98426861 14.6065105 -14 18 C-14.66 17.67 -15.32 17.34 -16 17 C-15.18015625 16.35933594 -14.3603125 15.71867188 -13.515625 15.05859375 C-5.42017131 8.65737086 -5.42017131 8.65737086 0 0 Z " fill="#1D253D" transform="translate(180,125)"/>
<path d="M0 0 C1.89499785 3.44855464 2.99640115 6.98800385 4.125 10.75 C4.47820313 11.92046875 4.83140625 13.0909375 5.1953125 14.296875 C5.46085938 15.18890625 5.72640625 16.0809375 6 17 C3 16 3 16 1.796875 13.671875 C1.45140625 12.70765625 1.1059375 11.7434375 0.75 10.75 C0.39421875 9.79609375 0.0384375 8.8421875 -0.328125 7.859375 C-1.04467822 4.80985782 -0.84919899 2.98308364 0 0 Z " fill="#101010" transform="translate(5,159)"/>
<path d="M0 0 C-3.63 1.98 -7.26 3.96 -11 6 C-11 7.98 -11 9.96 -11 12 C-12.5625 10.8125 -12.5625 10.8125 -14 9 C-13.89453125 6.56640625 -13.89453125 6.56640625 -13 4 C-10.8203125 2.3828125 -10.8203125 2.3828125 -8.125 1.125 C-7.24070313 0.69445312 -6.35640625 0.26390625 -5.4453125 -0.1796875 C-3 -1 -3 -1 0 0 Z " fill="#1D243C" transform="translate(163,144)"/>
<path d="M0 0 C0.66 0.33 1.32 0.66 2 1 C-0.38335287 3.67438936 -2.87036148 5.15158012 -6.0625 6.75 C-7.37927734 7.42289063 -7.37927734 7.42289063 -8.72265625 8.109375 C-9.47417969 8.40328125 -10.22570312 8.6971875 -11 9 C-11.66 8.67 -12.32 8.34 -13 8 C-10.61664713 5.32561064 -8.12963852 3.84841988 -4.9375 2.25 C-4.05964844 1.80140625 -3.18179688 1.3528125 -2.27734375 0.890625 C-1.52582031 0.59671875 -0.77429688 0.3028125 0 0 Z " fill="#171717" transform="translate(192,236)"/>
<path d="M0 0 C0.33 0.66 0.66 1.32 1 2 C-0.109375 4.78515625 -0.109375 4.78515625 -1.75 8.0625 C-2.28109375 9.14660156 -2.8121875 10.23070312 -3.359375 11.34765625 C-5 14 -5 14 -8 15 C-6.53200483 10.10668277 -4.66971326 5.36956975 -2 1 C-1.34 0.67 -0.68 0.34 0 0 Z " fill="#171717" transform="translate(244,179)"/>
<path d="M0 0 C0.33 0.66 0.66 1.32 1 2 C0.20335938 2.09796875 -0.59328125 2.1959375 -1.4140625 2.296875 C-7.62704273 3.17364593 -12.13766231 3.94805192 -17 8 C-17 7.01 -17 6.02 -17 5 C-11.75033408 1.13995153 -6.46056557 -0.30764598 0 0 Z " fill="#252A43" transform="translate(78,148)"/>
<path d="M0 0 C0.99 0.33 1.98 0.66 3 1 C0.19195732 3.96404505 -2.18315774 6.44499019 -6 8 C-4.55746343 4.63408134 -2.66735273 2.48952921 0 0 Z " fill="#0E0E0E" transform="translate(47,27)"/>
<path d="M0 0 C0.99 0.495 0.99 0.495 2 1 C4.0374763 1.22858114 6.08040303 1.41024278 8.125 1.5625 C9.76855469 1.68818359 9.76855469 1.68818359 11.4453125 1.81640625 C12.28835937 1.87699219 13.13140625 1.93757812 14 2 C14 2.33 14 2.66 14 3 C7.565 3.495 7.565 3.495 1 4 C0.67 2.68 0.34 1.36 0 0 Z " fill="#1F214C" transform="translate(127,179)"/>
<path d="M0 0 C0.66 0.66 1.32 1.32 2 2 C0.02 4.64 -1.96 7.28 -4 10 C-4.66 9.34 -5.32 8.68 -6 8 C-4.02 5.36 -2.04 2.72 0 0 Z " fill="#1F1E34" transform="translate(223,193)"/>
</svg>
