<svg xmlns="http://www.w3.org/2000/svg"  viewBox="0 0 50 50" width="500px" height="500px"><path d="M 1 12 C 0.644531 12 0.304688 12.191406 0.125 12.5 C -0.0546875 12.808594 -0.0507813 13.191406 0.125 13.5 L 6.65625 24.9375 L 11.90625 15.78125 L 10.46875 13.375 C 9.949219 12.519531 9 12 8 12 Z M 16.96875 12 C 16.609375 12 16.273438 12.1875 16.09375 12.5 L 8.0625 26.5 C 7.886719 26.808594 7.886719 27.191406 8.0625 27.5 L 14.65625 39 C 15.71875 40.851563 17.710938 42 19.84375 42 L 22.21875 42 L 26.625 34 L 21.0625 34 L 17.125 27 L 25.71875 12 Z M 28.03125 12 L 23.4375 20 L 28.9375 20 L 32.84375 26.96875 L 32.9375 27 L 24.5 42 L 33 42 C 33.359375 42 33.695313 41.8125 33.875 41.5 L 41.90625 27.5 C 42.085938 27.191406 42.082031 26.808594 41.90625 26.5 L 35.3125 15 C 34.253906 13.148438 32.257813 12 30.125 12 Z M 43.34375 29.03125 L 38.09375 38.1875 L 39.53125 40.59375 C 40.050781 41.449219 41.003906 41.96875 42 41.96875 L 49 41.96875 C 49.355469 41.96875 49.695313 41.777344 49.875 41.46875 C 50.054688 41.160156 50.050781 40.777344 49.875 40.46875 Z"/></svg>